#!OML:ASF I:\Actors\actors\Patient Classification 2\Patient 1\Session 1\actor1.ASF
:FULLY-SPECIFIED
:DEGREES
181
root 0.378292 18.6659 3.84807 7.9928 -8.44642 -7.03901
lowerback 14.6255 5.60519 -9.97117
upperback 3.04335 5.6196 -3.17059
thorax -5.54898 2.85427 1.10201
lowerneck -10.0744 -0.244005 4.29718
upperneck 34.6184 -3.50989 6.26396
head 13.4535 -0.209403 1.22025
rclavicle -6.59965e-014 -1.43125e-014
rhumerus -17.6023 43.548 -96.233
rradius 102.918
rwrist -44.8597
rhand -28.2808 -40.5893
rfingers 7.12502
rthumb -1.65713 -70.5626
lclavicle -6.59965e-014 -1.43125e-014
lhumerus -28.1306 -22.9662 71.2509
lradius 61.5002
lwrist 9.67517
lhand -29.7471 -70.9547
lfingers 7.12502
lthumb -3.07326 -40.9971
rfemur -4.76079 -4.11721 17.868
rtibia -2.16675e-014
rfoot -4.28487 -4.20442
rtoes -5.32176
lfemur -19.4803 2.17837 -10.4962
ltibia 33.8744
lfoot -23.4553 10.0616
ltoes -53.8128
182
root 0.394225 18.6641 3.8478 8.14237 -8.93041 -7.109
lowerback 14.6105 5.37345 -10.2586
upperback 3.08081 5.27212 -3.21408
thorax -5.48649 2.68542 1.2916
lowerneck -10.2125 0.103462 4.56278
upperneck 34.6663 -3.03018 6.06385
head 13.4896 0.00577444 1.1611
rclavicle 7.39479e-014 -3.33958e-014
rhumerus -17.0107 43.3504 -95.329
rradius 103.28
rwrist -42.6583
rhand -30.5544 -42.8047
rfingers 7.12502
rthumb -3.8528 -72.7497
lclavicle 7.39479e-014 -3.33958e-014
lhumerus -26.6619 -22.4704 72.1889
lradius 61.2892
lwrist 10.0563
lhand -29.6495 -71.1836
lfingers 7.12502
lthumb -2.97892 -41.2246
rfemur -4.99259 -3.63747 17.8593
rtibia 1.47101e-014
rfoot -4.21173 -4.3197
rtoes -5.86356
lfemur -19.5654 2.36684 -10.514
ltibia 33.9886
lfoot -23.5564 10.1643
ltoes -53.7204
183
root 0.411061 18.6637 3.84884 8.312 -9.30689 -7.18393
lowerback 14.6422 5.12582 -10.3808
upperback 3.09474 4.91872 -3.30566
thorax -5.45383 2.5127 1.33645
lowerneck -10.3971 0.415665 4.90176
upperneck 34.7458 -2.62337 5.85662
head 13.5546 0.19993 1.07772
rclavicle -7.23576e-014 2.38542e-014
rhumerus -16.6233 42.9282 -94.712
rradius 103.653
rwrist -39.8912
rhand -32.4186 -44.6135
rfingers 7.12502
rthumb -5.65291 -74.5181
lclavicle -7.23576e-014 2.38542e-014
lhumerus -25.1879 -22.0883 73.0995
lradius 61.0534
lwrist 10.6981
lhand -29.504 -71.5363
lfingers 7.12502
lthumb -2.83846 -41.5754
rfemur -5.22712 -3.26336 17.8736
rtibia -2.32578e-014
rfoot -4.11676 -4.51446
rtoes -6.99199
lfemur -19.713 2.48523 -10.5173
ltibia 34.1205
lfoot -23.5876 10.2748
ltoes -53.5753
184
root 0.427886 18.6623 3.85 8.38169 -9.55054 -7.25158
lowerback 14.7978 4.81596 -10.4438
upperback 3.15779 4.48327 -3.33847
thorax -5.4269 2.29847 1.42256
lowerneck -10.494 0.734537 5.11303
upperneck 34.6953 -2.1597 5.65185
head 13.5434 0.396423 1.02262
rclavicle -3.18055e-014 4.6118e-014
rhumerus -16.3103 42.6517 -94.2116
rradius 104.097
rwrist -36.2754
rhand -33.9317 -46.3521
rfingers 7.12502
rthumb -7.11362 -76.2125
lclavicle -3.18055e-014 4.6118e-014
lhumerus -23.7429 -21.555 74.0243
lradius 60.7394
lwrist 11.6508
lhand -29.0705 -71.8352
lfingers 7.12502
lthumb -2.4198 -41.8691
rfemur -5.33926 -3.01826 17.8888
rtibia -4.57205e-015
rfoot -4.04903 -4.72274
rtoes -7.82436
lfemur -19.8096 2.45997 -10.4994
ltibia 34.278
lfoot -23.6426 10.3523
ltoes -53.2989
185
root 0.441333 18.659 3.84923 8.37132 -9.71251 -7.31097
lowerback 15.0479 4.47752 -10.5229
upperback 3.24971 3.998 -3.35074
thorax -5.41637 2.05996 1.54565
lowerneck -10.5662 1.07408 5.34543
upperneck 34.582 -1.67035 5.46029
head 13.5018 0.6059 0.971492
rclavicle -3.10104e-014 6.36111e-015
rhumerus -15.7724 42.2856 -93.5851
rradius 104.543
rwrist -31.8215
rhand -33.7322 -48.0772
rfingers 7.12502
rthumb -6.92109 -77.9441
lclavicle -3.10104e-014 6.36111e-015
lhumerus -22.384 -20.9753 74.8334
lradius 60.7245
lwrist 12.5708
lhand -28.8611 -71.6994
lfingers 7.12502
lthumb -2.21752 -41.7312
rfemur -5.35597 -2.85166 17.9058
rtibia 7.7526e-015
rfoot -4.03985 -4.86027
rtoes -7.93823
lfemur -19.86 2.40562 -10.4651
ltibia 34.4646
lfoot -23.6728 10.4101
ltoes -53.1329
